<svg xmlns="http://www.w3.org/2000/svg" viewBox="0 0 512 512" width="512" height="512"><path d="M 265.4 30.9 A 225.3 225.3 0 0 1 446.2 135.3 L 320.8 214.8 L 259.2 179.3 Z" fill="#241a14"/><path d="M 455.6 151.6 A 225.3 225.3 0 0 1 455.6 360.4 L 324.1 291.6 L 324.1 220.4 Z" fill="#7a2f12"/><path d="M 446.2 376.7 A 225.3 225.3 0 0 1 265.4 481.1 L 259.2 332.7 L 320.8 297.2 Z" fill="#d73f09"/><path d="M 246.6 481.1 A 225.3 225.3 0 0 1 65.8 376.7 L 191.2 297.2 L 252.8 332.7 Z" fill="#f07818"/><path d="M 56.4 360.4 A 225.3 225.3 0 0 1 56.4 151.6 L 187.9 220.4 L 187.9 291.6 Z" fill="#ffb500"/><path d="M 65.8 135.3 A 225.3 225.3 0 0 1 246.6 30.9 L 252.8 179.3 L 191.2 214.8 Z" fill="#fdd26e"/></svg>